<?xml version="1.0" encoding="utf-8"?>
<!-- Designed by Vexels.com - 2019 All Rights Reserved - https://vexels.com/terms-and-conditions/  -->
<svg version="1.1" id="Layer_1" xmlns="http://www.w3.org/2000/svg" xmlns:xlink="http://www.w3.org/1999/xlink" x="0px" y="0px"
	 viewBox="0 0 1200 1200" enable-background="new 0 0 1200 1200" xml:space="preserve">
<path fill="#113B47" stroke="#113B47" stroke-miterlimit="10" d="M781.095,650.144c-0.368-5.696-0.904-11.378-1.433-17.061
	c-0.777-8.343-0.952-16.647-1.524-24.983c-0.385-5.611-1.692-12.867-8.32-13.916c-10.431-1.651-21.483-1.116-32.016-1.235
	c-11.441-0.129-22.866-0.898-34.25-2.021c-3.006-0.297-6.598,0.106-9.53-0.696c-1.016-0.278-1.704-1.264-1.628-2.314
	c0.16-2.212,0.517-4.448,0.715-6.666c0.483-5.412,1.171-10.808,1.253-16.248c0.065-4.345,0.469-10.377-2.318-14.045
	c-2.464-3.242-6.445-3.681-10.226-3.503c-2.257,0.107-4.559,0.564-6.812,0.544c-2.195-0.019-2.37-0.602-2.296-2.769
	c0.114-3.339,1.579-10.758-1.273-13.261c-2.085-1.83-7.435-0.22-8.555,2.135c-0.689,1.447-0.304,3.47-0.447,5.022
	c-0.229,2.49-0.889,5.061-0.417,7.562c-2.202-0.268-4.418-0.392-6.621-0.642c-1.044-0.119-5.084-0.046-5.862-0.872
	c-0.561-0.596,0.045-2.579,0.107-3.296c0.212-2.425,0.222-4.884,0.293-7.318c0.286-9.879,0.255-19.764,0.191-29.646
	c-0.041-6.334,1.974-16.846-4.995-20.283c-2.88-1.42-6.282-1.467-9.42-1.697c-1.651-0.121-6.335-0.019-7.004-1.566
	c-1.06-2.451,2.676-8.905-1.851-9.536c-5.38-0.749-4.839,6.245-4.823,9.512c-2.948-0.234-6.22-0.801-9.151-0.144
	c-1.195,0.268-2.212,0.922-3.371,1.284c-1.587,0.495-3.136,0.53-4.539,1.535c-1.732,1.241-2.654,3.096-2.987,5.143
	c-0.218,1.338,0.065,3.583-0.856,4.7c-0.86,1.043-1.73,0.89-2.138-0.221c-0.376-1.022,0.034-3.049,0.037-4.112
	c0.004-1.57,0.008-3.14,0.014-4.71c0.012-3.245,0.03-6.49,0.096-9.734c0.066-3.235,0.638-6.561,0.465-9.787
	c-0.088-1.643-0.798-5.58-3.245-4.65c-2.305,0.876-2.248,6.265-2.422,8.159c-0.609,6.634-1.137,13.291-1.328,19.952
	c-0.04,1.413,0.64,4.798-0.539,5.892c-0.439,0.407-1.515,0.266-2.1,0.388c-1.363,0.285-2.67,0.801-3.792,1.64
	c-4.112,3.073-3.911,8.717-3.675,13.312c0.763,14.823,2.529,29.702,2.008,44.559c-9.752-0.683-19.535-0.495-29.301-0.798
	c0.277-7.283,1.614-19.84-6.562-23.588c-2.017-0.925-3.847-0.792-5.983-0.738c-3.2,0.081-2.243-0.973-3.094-3.501
	c-1.964-5.835-10.581-6.539-13.865-1.646c-1.463-3.56-6.043-4.381-9.339-3.147c-1.744,0.653-3.28,1.961-4.089,3.656
	c-0.888,1.859-0.452,2.852-2.763,3.082c-4.635,0.462-7.375,3.236-8.064,7.883c-0.76,5.128-0.911,10.856-0.691,16.021
	c-9.443-0.504-18.96-0.037-28.413-0.037c-9.508,0-19.017,0-28.525,0c1.756-6.928,0.536-16.49-7.796-17.893
	c-3.516-0.592-8.204-0.341-11.436,1.25c-4.334,2.132-4.901,6.192-5.391,10.527c-0.202,1.789,0.221,5.802-1.692,6.365
	c-1.599,0.47-4.382-0.154-6.023-0.158c-2.892-0.007-5.784,0.003-8.677,0.015c-10.995,0.045-21.999,0.134-32.983-0.435
	c-6.004-0.311-11.945-0.922-17.893-1.794c-2.927-0.429-5.916-1.034-8.879-1.119c-0.917-0.026-4.476-0.497-5.187-0.016
	c0.004-0.002-0.472-3.948-0.489-4.253c-0.147-2.682-0.364-5.357-0.466-8.042c-0.203-5.353-0.193-10.714,0.022-16.066
	c0.336-8.378,3.632-19.971-5.938-24.566c-0.774-0.371-1.433-1.007-1.605-1.847c-0.409-1.995,0.049-4.577,0.095-6.603
	c0.121-5.361,0.799-10.689,1.022-16.044c0.133-3.2,1.112-7.901-0.212-10.928c-1.229-2.809-4.628-3.241-5.514-0.119
	c-1.484,5.231-1.845,11.133-2.335,16.53c-0.551,6.074-0.901,12.164-1.275,18.251c-8.011-0.697-17.347,0.459-19.232,9.603
	c-0.915,4.44-0.657,9.211-1.155,13.724c-0.567,5.144-1.263,10.286-1.324,15.47c-4.679-0.289-10.438-1.024-13.797,3.087
	c-2.44,2.987-1.975,9.324-1.416,12.867c-10.385,1.05-20.846-0.187-31.256,0.053c-3.956,0.091-8.835,0.506-11.305,4.067
	c-2.268,3.269-1.972,6.192-2.374,9.99c-1.135,10.724-1.925,21.49-2.19,32.272c-0.264,10.758,0.339,21.527-0.11,32.28
	c-3.06-7.836-14.081-6.353-15.497,1.606c-1.591,8.937,2.192,14.348,2.538,23.295c-3.995-0.671-8.061-0.632-12.099-0.632
	c1.313-8.682-1.793-15.983-12.129-16.051c1.351-5.103,0.376-9.531-4.189-12.523c-2.512-1.647-5.263-2.685-8.186-1.43
	c-2.278,0.978-4.151,3.061-4.672,5.515c-0.48,2.261,0.149,4.477,0.268,6.723c0.146,2.771-1.515,2.049-3.751,2.541
	c-6.032,1.326-7.386,7.032-7.248,12.384c-27.354-1.302-54.996,0.124-82.285-0.281c-6.776-0.1-13.537,0.318-20.285,0.942
	c-4.39,0.406-10.611-0.207-15.735,0.967c-2.653,0.608-3.99,3.601-2.802,6.05l41.639,85.849h1033.446
	c1.368-1.74,4.489-10.487,5.464-12.542c1.174-2.475,1.969-5.132,3.096-7.634c2.254-5.004,4.063-10.187,6.171-15.251
	c3.639-8.74,8.341-17.411,9.528-26.942c0.68-5.46,0.132-13.44-6.71-14.403c-5.331-0.719-10.985-0.37-16.353-0.254
	c-1.769,0.038-2.234,0.322-2.284-1.623c-0.044-1.709,0.113-3.286-0.416-4.967c-1.582-5.029-5.823-5.155-10.26-5.452L781.095,650.144
	z M357.503,674.258c0.147-0.037,0.295-0.074,0.442-0.111C357.908,674.352,357.761,674.389,357.503,674.258z M598.218,462.785
	 M300.894,561.518c-0.664,0.093-0.676-0.097-0.037-0.57C300.869,561.138,300.881,561.328,300.894,561.518z"/>
</svg>
